# xmcd
#
# Track frame offsets:
#	150
#	17386
#	31484
#	66267
#	83683
#	102774
#	120943
#	132303
#	150993
#	165228
#	185055
#	200993
#
# Disc length: 2804 seconds
#
# Revision: 1
# Processed by: cddbd v1.5.2PL0 Copyright (c) Steve Scherf et al.
# Submitted via: audiograbber 1.83.01
#
DISCID=900af20c
DTITLE=Henry Cooper - The Gin Years
DYEAR=2007
DGENRE=Blues
TTITLE0=Unsteady
TTITLE1=Foxette
TTITLE2=Death Jacket Blues
TTITLE3=Second Time
TTITLE4=Take It To Go
TTITLE5=Upriver Blues
TTITLE6=Kape Kiwanda
TTITLE7=Good Bye Blues
TTITLE8=Blue Sky
TTITLE9=On Your Way
TTITLE10=Road's End
TTITLE11=Bonus Track
EXTD=
EXTT0=
EXTT1=
EXTT2=
EXTT3=
EXTT4=
EXTT5=
EXTT6=
EXTT7=
EXTT8=
EXTT9=
EXTT10=
EXTT11=
PLAYORDER=
